<?xml version="1.0" encoding="UTF-8"?>
<!DOCTYPE svg PUBLIC "-//W3C//DTD SVG 1.1//EN" "http://www.w3.org/Graphics/SVG/1.1/DTD/svg11.dtd">
<!-- Creator: CorelDRAW -->
<svg xmlns="http://www.w3.org/2000/svg" xml:space="preserve" width="1048.76mm" height="167.007mm" version="1.1" style="shape-rendering:geometricPrecision; text-rendering:geometricPrecision; image-rendering:optimizeQuality; fill-rule:evenodd; clip-rule:evenodd"
viewBox="0 0 22763.46 3624.9"
 xmlns:xlink="http://www.w3.org/1999/xlink"
 xmlns:xodm="http://www.corel.com/coreldraw/odm/2003">
 <defs>
  <style type="text/css">
   <![CDATA[
    .fil0 {fill:white;fill-rule:nonzero}
   ]]>
  </style>
 </defs>
 <g id="Layer_x0020_1">
  <metadata id="CorelCorpID_0Corel-Layer"/>
  <g id="_105553173386176">
   <path class="fil0" d="M20887.06 311.47c-1029.17,171.44 -1872.9,311.45 -1874.85,311.94 -2.47,0 -3.91,-47.65 -3.91,-105.62l0 -105.62 26.99 0 26.93 0 0 -35.86 0 -35.86 -175.62 -109.05c-96.59,-59.44 -179,-110.04 -183.43,-111.51 -4.94,-1.97 -68.22,34.88 -184.97,109.05l-177.05 112 0 35.37 0 35.86 26.99 0 26.93 0 0 103.16c0,87.93 -0.98,103.16 -7.35,103.16 -3.91,0 -454.71,-47.65 -1001.66,-105.61 -546.48,-58.46 -995.8,-105.13 -998.27,-104.64 -3.44,1.47 368.86,722.13 378.22,732.44 2.93,2.95 1541.25,-244.64 1615.85,-259.87l13.21 -2.95 0 66.81 0 66.81 -110.38 0 -110.32 0 0 56.49 0 56 67.65 1.47 67.25 1.48 1.43 192.57 0.98 193.06 -95.62 0 -95.68 0 0 56.49 0 56.01 30.9 1.48 30.44 1.47 9.3 101.69 9.3 102.17 -62.31 860.66c-34.34,473.56 -62.25,862.62 -61.79,864.58 0,2.46 282.55,3.93 627.92,3.93l627.86 0 0 -9.83c0,-5.89 -28.94,-392.99 -64.26,-861.14l-64.26 -850.83 7.87 -98.25c4.88,-54.03 9.82,-102.18 10.8,-107.09 1.95,-6.88 8.33,-8.35 31.87,-8.35l28.94 0 0 -56.49 0 -56.49 -94.18 -0.98 -94.64 -1.48 0 -191.58 0 -191.59 67.65 -1.48 67.25 -1.47 0 -56 0 -56.49 -110.38 0 -110.38 0 0 -66.32c0,-63.86 0.46,-66.32 10.28,-66.32 5.4,0 654.91,69.76 1443.16,154.74 788.31,84.99 1436.85,154.74 1441.21,154.74 5.91,0 153.04,-201.41 424.33,-578.68 228.62,-317.84 420.89,-585.56 427.78,-594.41 6.37,-8.35 9.82,-15.72 7.81,-15.23 -2.41,0 -846.66,140.49 -1875.83,311.45zm-2001.42 397.9l0 184.22 -186.41 0 -186.41 0 0 -184.22 0 -184.21 186.41 0 186.41 0 0 184.21z"/>
   <path class="fil0" d="M1284.95 1552.35l0 413.63 -55.43 -53.55c-136.86,-132.64 -277.16,-188.63 -474.85,-188.63 -138.82,0 -248.71,28.49 -352.21,91.86 -200.14,121.33 -339.45,347.8 -385.08,625.35 -28.94,175.37 -21.09,405.76 18.64,562.96 46.6,183.73 125.09,323.73 244.78,437.2 93.2,88.43 205.54,146.4 335.53,172.43 33.35,6.88 67.2,8.84 148.64,8.35 91.24,0 112.33,-1.47 156.97,-11.3 150.11,-32.43 249.2,-87.44 362.02,-199.94l64.75 -64.84 0 107.58 0 107.58 311.49 0 311.5 0 0 -1210.91 0 -1210.91 -343.38 0 -343.38 0 0 413.14zm-206.52 729c94.18,22.6 162.86,98.25 191.31,211.24 28.94,114.95 26.98,284.43 -4.9,388.57 -34.83,113.48 -111.85,194.04 -204.56,213.69 -41.7,8.36 -124.11,3.44 -158.94,-9.82 -88.3,-33.9 -149.12,-117.9 -178.55,-246.11 -10.3,-45.2 -14.72,-207.8 -6.87,-268.71 20.6,-165.55 86.83,-261.34 199.16,-288.36 38.75,-9.33 124.11,-9.33 163.35,-0.49z"/>
   <path class="fil0" d="M4782.53 1497.82l0 275.1 -125.09 0 -125.09 0 0 206.32 0 206.32 125.09 0 125.09 0 0 489.77c0,410.68 1.47,498.12 7.36,539.38 32.38,214.67 129.99,315.87 344.36,355.66 29.43,5.9 76.03,12.29 104,15.23 92.22,8.84 348.78,5.4 539.12,-7.86l45.14 -2.95 0 -254.46 0 -254.46 -101.56 -1.96c-85.84,-2.46 -106.94,-4.42 -134.41,-13.26 -45.62,-14.74 -71.13,-34.39 -86.82,-68.29l-13.24 -28 -1.47 -384.65 -0.98 -384.15 164.33 0 164.34 0 0 -206.32 0 -206.32 -164.34 0 -164.33 0 0 -275.1 0 -275.1 -350.74 0 -350.73 0 0 275.1z"/>
   <path class="fil0" d="M15240.91 1497.82l0 275.1 -125.08 0 -125.08 0 0 206.32 0 206.32 125.08 0 124.56 0 2.01 499.59c1.43,449.98 2.41,505 9.76,546.75 19.18,104.15 54.96,179.8 109.92,234.32 54.44,53.54 148.11,91.86 273.7,112.5 93.21,14.74 426.29,14.24 609.77,-1.48l35.32 -2.95 0 -254.46 0 -254.96 -79.48 0c-156.49,0 -213.86,-21.12 -244.76,-89.9l-11.77 -25.54 -1.49 -382.18 -1.49 -381.7 167.29 0 166.77 0 0 -206.32 0 -206.32 -166.77 0 -166.77 0 0 -275.1 0 -275.1 -350.77 0 -350.71 0 0 275.1z"/>
   <path class="fil0" d="M3256.94 1712.49c-183.46,5.4 -366.44,35.86 -483.68,81.55 -243.31,93.83 -368.89,250.53 -387.53,481.42l-3.44 42.74 344.86 -0.98 344.85 -1.48 6.38 -28c23.05,-99.72 99.09,-146.39 239.87,-146.39 107.92,0 172.18,17.19 211.43,56.49 28.94,28.98 38.75,56 35.32,100.7 -1.47,22.6 -5.4,34.39 -16.68,50.11 -39.74,56.49 -142.75,95.3 -306.1,114.46 -312.97,36.35 -451.79,62.88 -592.58,111.02 -153.54,53.06 -239.87,119.86 -293.34,227.94 -35.81,72.22 -47.09,125.27 -49.54,235.8 -3.43,132.14 10.3,207.79 55.43,299.65 70.15,144.43 208.97,239.24 402.74,275.59 58.38,10.81 210.45,14.74 284.02,7.37 189.84,-19.16 362.03,-88.92 496.43,-201.41 17.17,-14.25 32.38,-25.05 33.36,-23.58 1.47,1.48 12.26,38.81 23.55,83.02l21.09 80.07 353.68 1.47 354.17 0.98 0 -24.56c0,-22.6 -1.47,-26.03 -22.07,-44.7 -11.77,-11.3 -27.96,-32.91 -35.32,-48.14l-13.73 -27.51 -2.95 -582.13c-2.94,-618.96 -2.45,-615.03 -26.98,-708.86 -10.79,-41.26 -36.3,-96.28 -62.79,-133.12 -44.64,-62.88 -136.37,-136.08 -214.86,-171.93 -85.84,-39.3 -230.06,-76.14 -363.99,-93.83 -53.96,-6.87 -244.29,-18.18 -272.74,-16.21 -6.87,0.49 -33.35,1.47 -58.86,2.45zm306.59 1093.01c3.92,48.64 -3.43,142.95 -14.72,186.67 -26.49,102.18 -90.75,166.54 -193.76,193.06 -43.17,11.3 -126.56,16.7 -172.67,11.3 -82.41,-8.84 -134.9,-46.18 -154.03,-110.04 -23.06,-77.12 13.74,-137.06 113.32,-185.69 44.64,-22.1 91.73,-37.33 235.46,-78.6 43.16,-11.79 99.58,-29.47 125.08,-38.8 25.51,-9.34 49.06,-17.19 52.49,-17.69 3.43,-0.49 6.87,13.75 8.83,39.79z"/>
   <path class="fil0" d="M7009.59 1712.49c-218.28,5.9 -414.51,44.7 -551.36,109.05 -185.43,86.95 -304.14,245.62 -319.36,428.36 -1.43,20.14 -3.9,43.72 -5.4,52.07l-2.41 16.21 345.83 0 345.31 0 3.44 -21.13c8.33,-53.54 47.55,-107.08 94.18,-129.2 46.57,-21.62 87.81,-28 170.68,-25.05 125.6,4.91 186.93,28.49 212.43,83.02 34.86,74.67 6.37,139.52 -79.48,180.78 -62.25,29.97 -133.92,46.18 -272.72,61.41 -342.9,37.82 -558.26,90.39 -693.16,169.48 -21.54,12.77 -52.49,38.81 -80.46,66.32 -38.7,39.3 -48.07,51.58 -69.6,96.28 -42.21,87.44 -58.4,176.35 -53.01,294.25 7.35,152.78 51.97,267.24 140.3,359.59 85.85,90.39 202.09,143.44 360.53,164.08 73.62,9.83 235.97,6.87 307.12,-5.4 166.25,-28.49 304.6,-89.9 429.22,-190.61 35.32,-28.98 41.69,-31.93 41.69,-22.1 0,2.95 9.3,40.77 20.1,83.51l20.62 77.62 354.62 0 355.19 0 0 -24.07c0,-21.62 -1.95,-25.54 -14.7,-34.88 -17.69,-12.77 -41.75,-46.17 -53.01,-74.67 -7.87,-19.16 -8.33,-70.25 -10.8,-608.16 -2.93,-634.19 -2.47,-621.42 -29.92,-710.34 -40.72,-133.12 -153.04,-241.69 -316.89,-307.02 -79.48,-31.44 -206.51,-61.41 -322.29,-75.66 -57.37,-6.87 -240.85,-18.18 -267.84,-16.21 -6.83,0.49 -33.37,1.48 -58.86,2.46zm302.19 1070.42c6.37,33.89 -1.49,163.58 -12.29,204.85 -22.57,85.47 -63.75,140.5 -128.98,172.43 -46.11,22.6 -82.41,31.44 -147.19,36.85 -95.62,7.86 -160.4,-6.88 -204.04,-46.18 -47.09,-42.74 -61.33,-112 -32.85,-163.58 29.4,-54.04 109.86,-99.23 243.27,-136.56 107.97,-29.97 217.31,-63.37 247.23,-75.16 13.78,-5.4 26.02,-9.83 27.97,-10.31 1.95,0 4.94,7.86 6.89,17.68z"/>
   <path class="fil0" d="M9246.47 1713.97c-386.03,21.62 -678.4,194.04 -823.11,483.87 -72.59,144.92 -103.03,302.12 -97.63,505.49 5.4,230.39 62.31,408.23 180.03,562.97 179.52,235.79 467.01,358.61 841.26,358.61 423.82,0 738.29,-158.67 881.52,-444.58 40.2,-80.07 69.66,-184.21 79.94,-281.48l2.99 -30.46 -352.72 0 -352.72 0 -7.35 37.83c-24.52,122.81 -84.36,191.09 -190.32,218.11 -39.22,9.83 -127.55,8.35 -164.36,-2.46 -113.3,-33.89 -167.75,-113.48 -196.69,-285.41 -10.28,-61.9 -12.23,-253.98 -2.93,-319.31 20.1,-141.48 70.64,-237.27 147.65,-279.03 55.42,-30.46 149.14,-41.27 221.73,-26.04 94.18,20.14 155.51,85.97 175.1,187.16 3.96,21.62 7.87,42.24 8.84,45.19 1.49,4.91 76.03,6.39 354.16,6.39l352.21 0 -3.91 -43.23c-18.66,-217.62 -123.58,-394.47 -308.04,-521.21 -187.91,-128.71 -448.86,-189.13 -745.64,-172.43z"/>
   <path class="fil0" d="M11441.19 1713.97c-214.38,12.28 -396.37,68.28 -542.58,166.53 -216.33,145.9 -341.93,356.64 -379.66,636.65 -17.17,130.66 -9.82,305.06 18.61,427.38 59.38,256.91 227.64,466.19 465.05,579.17 140.3,66.32 274.22,94.81 468.5,99.72 257.05,6.39 465.97,-32.42 637.68,-117.4 137.83,-68.78 254.12,-183.73 321.31,-317.35 18.66,-37.82 53.98,-134.6 53.98,-147.86 0,-3.94 -90.79,-5.4 -337.04,-5.4l-337.5 0.49 -11.77 24.56c-22.05,48.14 -77.47,89.9 -145.18,111.03 -23.55,6.87 -45.6,8.84 -107.91,8.84 -73.1,0 -81.43,-0.98 -117.73,-13.75 -49.04,-17.19 -99.58,-51.09 -128.52,-86.46 -44.62,-54.53 -79.94,-154.25 -79.94,-227.94l0 -28 662.72 0 663.18 0 -2.93 -102.17c-6.89,-246.6 -63.74,-445.07 -174.12,-610.62 -139.84,-209.27 -343.42,-336.01 -615.63,-382.68 -49.56,-8.35 -206.05,-21.12 -236.49,-18.67 -5.4,0 -38.71,1.97 -74.03,3.93zm177.05 430.32c109.4,22.6 181.99,96.28 213.4,216.15 5.4,21.12 11.26,53.55 13.21,71.72l2.99 33.41 -314.94 0 -314.42 0 0 -21.62c0,-27.02 11.26,-81.55 24.52,-118.88 29.4,-84 105.44,-157.2 186.41,-178.81 52.43,-14.24 127.03,-14.74 188.82,-1.96z"/>
   <path class="fil0" d="M14012.13 1731.65c-142.31,20.14 -236.95,54.04 -336.07,120.85 -50.48,33.89 -114.74,91.37 -159.88,142.95l-33.88 37.83 -1.43 -130.18 -0.98 -130.18 -321.31 0 -321.31 0 0 894.06 0 894.06 353.18 0 352.72 0 1.95 -514.82c1.43,-473.07 1.95,-517.28 10.28,-551.18 20.1,-84.98 53.46,-140.99 105.5,-175.37 45.6,-30.95 74.02,-38.32 150.06,-38.32 73.11,0 104.52,7.37 142.77,32.91 42.67,28.98 64.26,67.3 83.38,146.88 8.33,33.4 8.84,79.09 10.34,567.88l1.95 532.01 352.67 0 353.24 0 0 -541.84c0,-636.16 -3.96,-726.06 -36.35,-854.76 -41.18,-162.6 -145.18,-293.27 -289.9,-364.5 -104,-51.09 -172.17,-66.32 -306.61,-68.77 -52.43,-0.98 -101.99,-0.49 -110.32,0.49z"/>
   <path class="fil0" d="M17608.27 1734.11c-195.26,25.54 -333.08,128.71 -411.07,309.48l-21.08 49.12 -1.49 -160.14 -0.98 -159.65 -326.19 0 -326.25 0 0 894.06 0 894.06 352.72 0 353.18 0 1.95 -409.2c1.49,-395.94 1.95,-410.18 12.29,-455.38 33.37,-148.85 124.56,-232.85 283.01,-261.34 33.88,-5.89 169.76,-8.35 233.04,-4.42l31.87 2.46 1.49 -352.22 0.98 -352.22 -74.6 0.49c-41.18,0.49 -90.22,2.95 -108.88,4.92z"/>
   <path class="fil0" d="M19735.74 1818.11c173.2,250.53 544.99,798.76 544.53,804.66 0,3.93 -109.92,170.95 -244.3,370.89 -134.44,199.94 -274.68,409.2 -312.47,465.21l-67.71 102.18 388.5 0 389.02 0 122.61 -245.62c67.25,-135.09 123.64,-245.62 125.14,-245.62 1.43,0 60.82,110.53 131.91,245.62l129.5 245.62 392.46 0 391.95 0 -9.82 -16.21c-4.88,-8.35 -143.23,-221.06 -307.07,-472.08l-297.76 -455.87 8.33 -12.77c4.42,-6.87 138.34,-195.51 296.79,-419.52 158.96,-224.01 288.92,-408.23 288.92,-409.21 0,-1.47 -172.69,-1.96 -383.62,-1.47l-383.56 1.47 -116.29 208.78c-63.75,114.95 -117.73,208.78 -119.68,208.78 -1.95,0 -53.98,-93.83 -115.77,-208.78l-111.81 -208.78 -385.57 -1.47 -385.57 -0.98 31.36 45.19z"/>
  </g>
 </g>
</svg>
