<svg width="3966" height="633" viewBox="0 0 3966 633" fill="none" xmlns="http://www.w3.org/2000/svg">
<path d="M3637.99 55.1735C3458.78 85.0272 3311.86 109.406 3311.52 109.492C3311.09 109.492 3310.84 101.194 3310.84 91.1006V72.7094H3315.54H3320.23V66.4649V60.2204L3289.65 41.2304C3272.83 30.88 3258.48 22.0694 3257.71 21.8127C3256.85 21.4706 3245.83 27.8861 3225.5 40.8027L3194.67 60.306V66.4649V72.7094H3199.37H3204.06V90.6729C3204.06 105.985 3203.89 108.636 3202.78 108.636C3202.1 108.636 3123.6 100.339 3028.36 90.2452C2933.2 80.0658 2854.96 71.9395 2854.53 72.025C2853.93 72.2817 2918.76 197.77 2920.39 199.566C2920.9 200.079 3188.77 156.967 3201.76 154.315L3204.06 153.802V165.435V177.069H3184.84H3165.63V186.906V196.658L3177.41 196.914L3189.12 197.171L3189.37 230.703L3189.54 264.32H3172.89H3156.23V274.157V283.909L3161.61 284.166L3166.91 284.422L3168.53 302.129L3170.15 319.921L3159.3 469.789C3153.32 552.25 3148.46 619.998 3148.54 620.34C3148.54 620.768 3197.74 621.024 3257.88 621.024H3367.21V619.313C3367.21 618.287 3362.17 550.881 3356.02 469.361L3344.83 321.205L3346.2 304.096C3347.05 294.687 3347.91 286.304 3348.08 285.449C3348.42 284.251 3349.53 283.994 3353.63 283.994H3358.67V274.157V264.32L3342.27 264.149L3325.79 263.892V230.532V197.171L3337.57 196.914L3349.28 196.658V186.906V177.069H3330.06H3310.84V165.521C3310.84 154.401 3310.92 153.973 3312.63 153.973C3313.57 153.973 3426.67 166.12 3563.93 180.918C3701.2 195.717 3814.13 207.863 3814.89 207.863C3815.92 207.863 3841.54 172.792 3888.78 107.097C3928.59 51.7519 3962.07 5.13233 3963.27 3.5926C3964.38 2.13841 3964.98 0.855305 3964.63 0.940846C3964.21 0.940846 3817.2 25.4054 3637.99 55.1735ZM3289.48 124.461V156.539H3257.02H3224.56V124.461V92.3837H3257.02H3289.48V124.461Z" fill="#015A82"/>
<path d="M224.652 271.249V343.274L215 333.95C191.168 310.854 166.738 301.103 132.314 301.103C108.141 301.103 89.0067 306.064 70.9833 317.099C36.1324 338.227 11.8734 377.662 3.92943 425.992C-1.11029 456.53 0.256413 496.648 7.17535 524.021C15.2901 556.014 28.9572 580.393 49.7994 600.152C66.029 615.55 85.5899 625.644 108.226 630.177C114.034 631.375 119.928 631.717 134.108 631.631C149.996 631.631 153.669 631.375 161.442 629.664C187.58 624.018 204.835 614.438 224.481 594.849L235.756 583.558V602.291V621.024H289.997H344.238V410.167V199.309H284.445H224.652V271.249ZM188.691 398.191C205.091 402.126 217.05 415.299 222.004 434.974C227.044 454.99 226.702 484.502 221.15 502.636C215.085 522.396 201.674 536.425 185.53 539.846C178.269 541.301 163.919 540.445 157.854 538.136C142.479 532.233 131.887 517.606 126.762 495.28C124.968 487.41 124.199 459.096 125.566 448.489C129.154 419.662 140.685 402.982 160.246 398.277C166.994 396.652 181.857 396.652 188.691 398.191Z" fill="#015A82"/>
<path d="M833.689 261.754V309.657H811.907H790.125V345.584V381.511H811.907H833.689V466.795C833.689 538.307 833.945 553.533 834.97 560.718C840.608 598.099 857.606 615.721 894.934 622.649C900.059 623.676 908.174 624.788 913.043 625.301C929.102 626.841 973.776 626.242 1006.92 623.933L1014.78 623.419V579.109V534.799L997.095 534.457C982.147 534.029 978.474 533.687 973.69 532.148C965.746 529.581 961.305 526.16 958.571 520.257L956.265 515.382L956.009 448.403L955.838 381.511H984.453H1013.07V345.584V309.657H984.453H955.838V261.754V213.851H894.763H833.689V261.754Z" fill="#015A82"/>
<path d="M2654.82 261.754V309.657H2633.04H2611.26V345.584V381.511H2633.04H2654.73L2655.08 468.505C2655.33 546.861 2655.5 556.441 2656.78 563.712C2660.12 581.847 2666.35 595.02 2675.92 604.515C2685.4 613.839 2701.71 620.511 2723.58 624.104C2739.81 626.67 2797.81 626.584 2829.76 623.847L2835.91 623.334V579.024V534.628H2822.07C2794.82 534.628 2784.83 530.95 2779.45 518.974L2777.4 514.526L2777.14 447.976L2776.88 381.511H2806.01H2835.05V345.584V309.657H2806.01H2776.97V261.754V213.851H2715.89H2654.82V261.754Z" fill="#015A82"/>
<path d="M568.036 299.135C536.089 300.076 504.228 305.38 483.813 313.335C441.445 329.673 419.578 356.961 416.332 397.165L415.734 404.607L475.784 404.436L535.833 404.179L536.944 399.303C540.958 381.939 554.198 373.812 578.713 373.812C597.506 373.812 608.695 376.806 615.529 383.649C620.569 388.696 622.277 393.401 621.679 401.185C621.423 405.12 620.739 407.173 618.775 409.91C611.856 419.747 593.918 426.505 565.473 429.841C510.976 436.171 486.803 440.79 462.287 449.173C435.551 458.412 420.518 470.045 411.207 488.864C404.971 501.439 403.007 510.677 402.58 529.924C401.982 552.934 404.373 566.107 412.232 582.103C424.447 607.252 448.62 623.762 482.361 630.092C492.526 631.974 519.006 632.658 531.818 631.375C564.875 628.039 594.858 615.892 618.262 596.303C621.252 593.822 623.9 591.941 624.071 592.197C624.327 592.454 626.206 598.955 628.171 606.654L631.844 620.597L693.431 620.853L755.103 621.024V616.747C755.103 612.812 754.847 612.214 751.26 608.963C749.21 606.996 746.391 603.232 745.109 600.58L742.718 595.79L742.205 494.424C741.693 386.643 741.778 387.328 737.507 370.989C735.628 363.804 731.186 354.223 726.573 347.808C718.8 336.859 702.827 324.113 689.16 317.869C674.212 311.025 649.099 304.61 625.779 301.53C616.383 300.333 583.241 298.365 578.286 298.708C577.09 298.793 572.478 298.964 568.036 299.135ZM621.423 489.463C622.106 497.932 620.825 514.355 618.86 521.968C614.248 539.761 603.058 550.967 585.12 555.586C577.603 557.553 563.082 558.494 555.052 557.553C540.702 556.014 531.562 549.512 528.231 538.392C524.216 524.962 530.623 514.526 547.963 506.058C555.736 502.209 563.936 499.557 588.964 492.371C596.48 490.318 606.304 487.239 610.745 485.614C615.187 483.988 619.287 482.62 619.885 482.534C620.483 482.449 621.081 484.929 621.423 489.463Z" fill="#015A82"/>
<path d="M1221.49 299.135C1183.48 300.162 1149.31 306.919 1125.48 318.125C1093.19 333.266 1072.52 360.895 1069.87 392.716C1069.62 396.224 1069.19 400.33 1068.93 401.784L1068.51 404.607H1128.73H1188.86L1189.46 400.928C1190.91 391.604 1197.74 382.281 1205.86 378.431C1213.97 374.667 1221.15 373.555 1235.58 374.069C1257.45 374.924 1268.13 379.03 1272.57 388.525C1278.64 401.527 1273.68 412.819 1258.73 420.004C1247.89 425.222 1235.41 428.045 1211.24 430.697C1151.53 437.283 1114.03 446.436 1090.54 460.208C1086.79 462.432 1081.4 466.966 1076.53 471.756C1069.79 478.599 1068.16 480.738 1064.41 488.522C1057.06 503.748 1054.24 519.231 1055.18 539.761C1056.46 566.364 1064.23 586.295 1079.61 602.376C1094.56 618.116 1114.8 627.354 1142.39 630.947C1155.21 632.658 1183.48 632.144 1195.87 630.006C1224.82 625.045 1248.91 614.352 1270.61 596.816C1276.76 591.769 1277.87 591.256 1277.87 592.967C1277.87 593.48 1279.49 600.067 1281.37 607.509L1284.96 621.024H1346.71H1408.56V616.833C1408.56 613.069 1408.22 612.385 1406 610.759C1402.92 608.535 1398.73 602.719 1396.77 597.757C1395.4 594.421 1395.32 585.525 1394.89 491.858C1394.38 381.425 1394.46 383.649 1389.68 368.166C1382.59 344.985 1363.03 326.08 1334.5 314.704C1320.66 309.229 1298.54 304.011 1278.38 301.53C1268.39 300.333 1236.44 298.365 1231.74 298.707C1230.55 298.793 1225.93 298.964 1221.49 299.135ZM1274.11 485.528C1275.22 491.43 1273.85 514.013 1271.97 521.198C1268.04 536.082 1260.87 545.663 1249.51 551.223C1241.48 555.158 1235.16 556.698 1223.88 557.639C1207.23 559.007 1195.95 556.441 1188.35 549.598C1180.15 542.156 1177.67 530.095 1182.63 521.113C1187.75 511.703 1201.76 503.834 1224.99 497.333C1243.79 492.115 1262.83 486.298 1268.04 484.245C1270.44 483.304 1272.57 482.534 1272.91 482.449C1273.25 482.449 1273.77 483.817 1274.11 485.528Z" fill="#015A82"/>
<path d="M1611 299.392C1543.78 303.156 1492.87 333.18 1467.67 383.649C1455.03 408.884 1449.73 436.257 1450.67 471.67C1451.61 511.789 1461.52 542.755 1482.02 569.7C1513.28 610.759 1563.34 632.145 1628.51 632.145C1702.31 632.145 1757.07 604.515 1782.01 554.73C1789.01 540.787 1794.14 522.653 1795.93 505.716L1796.45 500.412H1735.03H1673.61L1672.33 506.999C1668.06 528.384 1657.64 540.274 1639.19 544.979C1632.36 546.69 1616.98 546.433 1610.57 544.551C1590.84 538.649 1581.36 524.791 1576.32 494.852C1574.53 484.074 1574.19 450.627 1575.81 439.251C1579.31 414.615 1588.11 397.935 1601.52 390.664C1611.17 385.36 1627.49 383.478 1640.13 386.13C1656.53 389.637 1667.21 401.1 1670.62 418.721C1671.31 422.485 1671.99 426.077 1672.16 426.591C1672.42 427.446 1685.4 427.703 1733.83 427.703H1795.16L1794.48 420.175C1791.23 382.281 1772.96 351.486 1740.84 329.417C1708.12 307.005 1662.68 296.483 1611 299.392Z" fill="#015A82"/>
<path d="M1993.17 299.392C1955.84 301.53 1924.15 311.282 1898.69 328.39C1861.02 353.796 1839.15 390.492 1832.58 439.251C1829.59 462.004 1830.87 492.371 1835.82 513.671C1846.16 558.408 1875.46 594.849 1916.8 614.523C1941.23 626.071 1964.55 631.032 1998.38 631.888C2043.14 633 2079.52 626.242 2109.42 611.444C2133.42 599.468 2153.67 579.451 2165.37 556.184C2168.62 549.598 2174.77 532.746 2174.77 530.437C2174.77 529.752 2158.96 529.496 2116.08 529.496L2057.31 529.581L2055.26 533.858C2051.42 542.241 2041.77 549.512 2029.98 553.191C2025.88 554.388 2022.04 554.73 2011.19 554.73C1998.46 554.73 1997.01 554.559 1990.69 552.335C1982.15 549.341 1973.35 543.439 1968.31 537.28C1960.54 527.785 1954.39 510.42 1954.39 497.589V492.713H2069.79H2185.27L2184.76 474.921C2183.56 431.98 2173.66 397.421 2154.44 368.594C2130.09 332.154 2094.64 310.084 2047.24 301.958C2038.61 300.504 2011.36 298.28 2006.06 298.707C2005.12 298.707 1999.32 299.05 1993.17 299.392ZM2024 374.325C2043.05 378.26 2055.69 391.091 2061.16 411.963C2062.1 415.641 2063.12 421.287 2063.46 424.452L2063.98 430.269H2009.14H1954.39V426.505C1954.39 421.8 1956.35 412.305 1958.66 405.804C1963.78 391.177 1977.02 378.431 1991.12 374.667C2000.25 372.187 2013.24 372.101 2024 374.325Z" fill="#015A82"/>
<path d="M2440.85 302.471C2416.07 305.978 2399.59 311.881 2382.33 323.514C2373.54 329.416 2362.35 339.425 2354.49 348.406L2348.59 354.993L2348.34 332.325L2348.17 309.657H2292.22H2236.27V465.34V621.024H2297.77H2359.19L2359.53 531.378C2359.78 449.002 2359.87 441.303 2361.32 435.401C2364.82 420.603 2370.63 410.851 2379.69 404.863C2387.63 399.474 2392.58 398.191 2405.82 398.191C2418.55 398.191 2424.02 399.474 2430.68 403.922C2438.11 408.969 2441.87 415.641 2445.2 429.499C2446.65 435.316 2446.74 443.271 2447 528.384L2447.34 621.024H2508.75H2570.26V526.673C2570.26 415.898 2569.57 400.244 2563.93 377.832C2556.76 349.518 2538.65 326.765 2513.45 314.361C2495.34 305.465 2483.47 302.813 2460.06 302.386C2450.93 302.215 2442.3 302.3 2440.85 302.471Z" fill="#015A82"/>
<path d="M3067.05 302.899C3033.05 307.347 3009.05 325.311 2995.47 356.789L2991.8 365.343L2991.54 337.457L2991.37 309.657H2934.57H2877.76V465.34V621.024H2939.18H3000.68L3001.02 549.769C3001.28 480.823 3001.36 478.343 3003.16 470.473C3008.97 444.554 3024.85 429.927 3052.44 424.965C3058.34 423.939 3082 423.511 3093.02 424.195L3098.57 424.623L3098.83 363.291L3099 301.958L3086.01 302.043C3078.84 302.129 3070.3 302.557 3067.05 302.899Z" fill="#015A82"/>
<path d="M3437.51 317.526C3467.67 361.152 3532.41 456.615 3532.33 457.642C3532.33 458.326 3513.19 487.41 3489.79 522.225C3466.38 557.04 3441.96 593.48 3435.38 603.232L3423.59 621.024H3491.24H3558.98L3580.33 578.254C3592.04 554.73 3601.86 535.484 3602.12 535.484C3602.37 535.484 3612.71 554.73 3625.09 578.254L3647.64 621.024H3715.98H3784.23L3782.52 618.201C3781.67 616.747 3757.58 579.708 3729.05 535.997L3677.2 456.615L3678.65 454.391C3679.42 453.194 3702.74 420.346 3730.33 381.34C3758.01 342.333 3780.64 310.255 3780.64 310.084C3780.64 309.828 3750.57 309.742 3713.84 309.828L3647.05 310.084L3626.8 346.439C3615.7 366.455 3606.3 382.794 3605.96 382.794C3605.62 382.794 3596.56 366.455 3585.8 346.439L3566.33 310.084L3499.19 309.828L3432.05 309.657L3437.51 317.526Z" fill="#015A82"/>
</svg>